PathFileType	4	(X/Y/Z)	D:\TRACE\spot_10-12-23\spot_arm_body_motion_1_9-platform.trc
DataRate	CameraRate	NumFrames	NumMarkers	Units	OrigDataRate	OrigDataStartFrame	OrigNumFrames
100.00	100.00	      54	5	mm	100.00	3501	      7000
Frame#	Time	Left_Front			Right_Front			Left_Aft			Right_Aft			Post			
		X1	Y1	Z1	X2	Y2	Z2	X3	Y3	Z3	X4	Y4	Z4	X5	Y5	Z5	

3501	35.000	-765.93658	-16.09096	-657.40991	801.24994	-17.52137	-632.96191	-697.32788	30.26418	480.11264	709.78162	31.93794	582.32336	21.89904	698.81189	-996.73413	
3502	35.010	-766.87469	-16.12402	-657.69507	800.42554	-17.51098	-632.95880	-698.30469	30.28159	479.98352	708.90448	31.92838	582.15790	21.24014	698.68860	-996.82245	
3503	35.020	-767.92267	-15.82426	-657.39734	799.40845	-17.56040	-632.96173	-699.04193	30.31369	480.04633	707.98035	32.02293	582.33820	20.49788	698.63318	-996.83221	
3504	35.030	-768.58282	-15.87841	-657.42090	798.58295	-17.56074	-632.94977	-700.17273	30.37906	480.01294	707.11249	31.96571	582.40967	19.57523	698.71991	-996.90692	
3505	35.040	-769.41888	-15.95960	-657.42786	797.76038	-17.52402	-632.85498	-700.90424	30.38345	480.10275	706.17511	31.85057	582.37286	18.50584	698.82062	-997.20599	
3506	35.050	-770.51770	-15.86937	-657.44678	796.81573	-17.42155	-632.83478	-701.64856	30.36314	480.11209	705.24872	31.85708	582.12152	17.38176	698.74738	-997.58252	
3507	35.060	-771.47266	-15.88210	-657.51794	795.96198	-17.42184	-632.95044	-703.09918	30.16595	480.15637	704.37408	31.91117	582.04401	16.66177	698.70428	-997.70081	
3508	35.070	-772.21722	-15.86428	-657.46112	794.99304	-17.38319	-632.98462	-703.61774	30.29535	480.04327	703.48419	31.90930	582.05463	15.79151	698.64832	-997.86945	
3509	35.080	-773.19092	-15.89563	-657.39270	793.88062	-17.59891	-633.00201	-704.59705	30.25408	479.93613	702.45490	31.97306	582.25519	15.02600	698.60931	-997.63586	
3510	35.090	-774.21521	-15.79523	-657.54675	793.04395	-17.41921	-633.07990	-705.72009	30.23751	480.00916	701.51831	31.99540	582.13696	13.79105	698.57654	-997.59894	
3511	35.100	-775.22815	-15.85152	-657.59387	792.11060	-17.56054	-633.05280	-706.37036	30.33770	479.95563	700.49323	31.98871	582.18219	12.69291	698.64160	-997.69507	
3512	35.110	-776.01257	-15.92210	-657.47394	791.11322	-17.70785	-632.99591	-707.40369	30.35389	479.88458	699.59363	31.84877	582.04810	12.05757	698.61322	-997.57501	
3513	35.120	-776.83704	-15.91162	-657.50214	790.29059	-17.37729	-633.00507	-708.32306	30.30832	479.98370	698.84454	31.68170	581.96686	11.31599	698.68262	-997.43341	
3514	35.130	-778.02301	-15.56020	-657.55621	789.35553	-17.31066	-633.01904	-709.26355	30.17019	480.02158	697.88538	31.71598	582.25250	10.09801	698.86255	-997.09296	
3515	35.140	-778.95325	-15.53128	-657.46588	788.47101	-17.08697	-633.01642	-710.20575	30.19334	480.07968	696.88129	31.72211	582.32153	9.21363	699.09619	-997.14740	
3516	35.150	-779.61060	-15.65062	-657.43121	787.35938	-16.90740	-633.09521	-711.24078	30.13477	480.11349	696.00061	31.54200	582.35736	42.29237	731.70941	-1012.69098	
3517	35.160	-780.67139	-15.40466	-657.57758	786.43402	-16.74290	-632.95667	-712.11237	29.97510	480.17380	694.93182	31.36541	582.15887	7.42981	699.77466	-996.74866	
3518	35.170	-781.98352	-14.98319	-657.38220	785.57043	-16.76162	-632.90778	-713.08868	29.73011	480.22333	693.95367	31.17659	582.20721	6.29251	699.92261	-996.32568	
3519	35.180	-782.60138	-15.00574	-657.34467	784.51404	-16.54621	-632.84430	-714.05481	29.64484	480.25284	693.15155	31.12333	582.36432	5.60926	700.11395	-996.32593	
3520	35.190	-783.56897	-14.81341	-657.28979	783.70874	-16.40313	-632.83734	-715.13531	29.54940	480.29813	692.03076	31.02387	582.38489	4.51805	700.44257	-996.09119	
3521	35.200	-784.71234	-14.49419	-657.24951	782.64777	-16.22130	-632.80023	-715.83875	29.38849	480.33392	690.72540	30.81940	582.53925	3.34532	700.70386	-995.91785	
3522	35.210	-785.65063	-14.46794	-657.43933	781.69110	-16.03661	-632.81689	-717.00330	29.29747	480.32480	689.84222	30.66388	582.45306	2.54379	700.98975	-995.66309	
3523	35.220	-786.20685	-14.58890	-657.62817	780.64124	-15.96021	-632.86334	-717.82574	29.22356	480.34830	688.73090	30.58214	582.46716	1.63683	701.20587	-995.32758	
3524	35.230	-787.55737	-13.83127	-657.20483	779.74603	-15.79616	-632.78796	-718.64362	29.10818	480.34738	687.93378	30.68019	582.60516	0.61984	701.41101	-994.99280	
3525	35.240	-788.56348	-13.42197	-657.42133	778.73462	-15.62225	-632.81390	-720.02246	28.99963	480.41156	686.79974	30.45978	582.63531	-0.30217	701.69238	-994.82715	
3526	35.250	-789.45770	-13.49072	-657.31653	777.81946	-15.71482	-632.64124	-720.71069	29.10816	480.42844	685.81775	30.48648	582.62457	-1.33408	701.79901	-994.87659	
3527	35.260	-790.61597	-13.65015	-657.16650	776.89160	-15.63570	-632.62756	-721.85968	28.97831	480.47986	685.02509	30.29560	582.56763	-2.59467	702.06403	-994.62329	
3528	35.270	-791.37988	-13.52966	-657.32288	775.78802	-15.35669	-632.73468	-722.89569	28.81171	480.62753	683.98999	30.19998	582.90802	-3.51038	702.18713	-994.64386	
3529	35.280	-792.16626	-13.41245	-657.75378	774.81702	-15.09793	-632.72260	-723.66492	28.75504	480.55209	682.89447	29.92462	582.89990	-4.29513	702.43170	-994.46167	
3530	35.290	-793.48145	-12.77292	-657.16064	773.81244	-15.06333	-632.71368	-724.71771	28.59637	480.64099	682.06403	29.76524	582.95111	-5.14894	702.81927	-994.14935	
3531	35.300	-794.19800	-12.57537	-657.19879	772.83307	-14.78872	-632.72321	-725.69250	28.44766	480.74936	681.16992	29.61318	582.84503	-6.19922	703.25067	-994.02631	
3532	35.310	-795.16205	-12.32524	-657.11877	771.91608	-14.49994	-632.50012	-726.61884	28.43670	480.72665	680.09418	29.35581	582.85822	-7.32048	703.61926	-994.15436	
3533	35.320	-796.38763	-11.99393	-657.20538	770.93390	-14.27418	-632.51520	-727.65106	28.16220	480.74661	679.27002	29.27009	583.01318	-8.20528	703.89807	-993.89557	
3534	35.330	-797.21497	-11.96517	-657.08960	770.02936	-13.85889	-632.53760	-728.52936	27.92035	480.82285	678.19049	28.79277	583.19971	-10.13823	704.34924	-993.50354	
3535	35.340	-798.19678	-11.58013	-656.82581	769.13751	-13.62179	-632.41687	-729.66577	27.65076	480.82486	677.25061	28.60354	583.31555	-10.83179	704.87323	-993.01666	
3536	35.350	-799.13654	-11.22309	-656.91809	768.20569	-13.16685	-632.38678	-730.26141	27.51375	480.91605	676.43243	28.47819	583.27454	-11.75987	705.47510	-992.66974	
3537	35.360	-799.75305	-11.22917	-657.18060	767.22064	-12.80219	-632.37640	-731.32678	27.46764	480.91986	675.73456	28.34530	583.29059	-12.94258	705.95508	-992.24750	
3538	35.370	-800.86523	-10.78905	-656.98468	766.25122	-12.65281	-632.33527	-732.30920	27.21083	481.03830	674.38361	27.97938	583.30121	-13.87871	706.22412	-991.60175	
3539	35.380	-801.92993	-10.37866	-656.65753	765.23737	-12.56188	-632.24609	-733.09845	26.93899	481.18945	673.49066	27.78529	583.29102	-14.89566	706.70203	-991.14838	
3540	35.390	-802.78381	-10.08700	-656.72351	764.38470	-12.31869	-632.17017	-734.26929	26.69063	481.22665	672.59210	27.50948	583.41418	-15.82568	707.19928	-990.53418	
3541	35.400	-803.90527	-9.64533	-656.66058	763.48749	-11.93257	-632.20013	-735.06396	26.57502	481.21472	671.63678	27.29494	583.61835	-15.78033	707.66559	-989.81537	
3542	35.410	-804.65350	-9.43194	-656.60718	762.47937	-11.49396	-632.11969	-735.90405	26.38549	481.21527	670.67981	27.01838	583.58295	-17.53904	708.22119	-989.39441	
3543	35.420	-805.44275	-9.13518	-656.63531	761.54315	-11.26979	-632.19104	-737.06604	26.09892	481.39615	669.84259	26.84816	583.63794	-18.06609	708.59900	-988.92847	
3544	35.430	-806.81091	-8.60679	-656.67419	760.62140	-11.01649	-632.20428	-737.83881	26.06742	481.31085	668.89740	26.62287	583.81500	-18.44509	708.95514	-988.54962	
3545	35.440	-807.51819	-8.51203	-656.57300	759.69849	-10.58975	-632.04260	-738.79919	25.75760	481.48169	667.93018	26.13860	583.97815	-20.17989	709.49835	-988.37604	
3546	35.450	-808.24097	-8.26160	-656.46124	759.02051	-10.29195	-631.89722	-739.73370	25.49633	481.53366	667.03491	25.97758	583.98224	-21.11535	710.04224	-988.07025	
3547	35.460	-809.16302	-7.77615	-656.32770	758.09900	-9.90542	-631.80243	-740.33612	25.39343	481.59732	666.21021	25.82592	583.93976	-21.91992	710.45398	-988.13458	
3548	35.470	-810.08221	-7.29417	-656.40186	757.21069	-9.59629	-631.73743	-741.47266	25.19268	481.65417	665.31281	25.49457	583.96057	-23.16896	711.31561	-988.17377	
3549	35.480	-810.68842	-7.35667	-656.51697	756.37738	-9.28952	-631.57098	-742.21295	25.00965	481.81049	664.57709	25.27432	584.24261	-23.71835	712.07336	-987.69025	
3550	35.490	-811.98248	-6.84050	-655.99377	755.47351	-8.92404	-631.54443	-743.25171	24.53488	482.00656	663.70459	24.72905	584.22552	-23.80762	712.55292	-986.96393	
3551	35.500	-812.44708	-6.66589	-655.96442	754.59308	-8.42274	-631.59424	-744.15607	24.20704	482.20007	662.67035	24.46182	584.53357	-24.14951	712.77588	-986.46851	
3552	35.510	-813.42981	-5.81766	-656.02991	753.69073	-7.90211	-631.55701	-744.90198	23.94060	482.36588	662.01385	24.26101	584.54272	-25.26246	713.38361	-986.31317	
3553	35.520	-814.46735	-5.23115	-655.96130	752.89154	-7.50541	-631.46820	-745.72711	23.70502	482.49597	661.32166	23.98316	584.53241	-26.26757	713.99744	-985.87451	
3554	35.530	-815.03156	-5.05047	-655.88898	752.10583	-7.20618	-631.31238	-746.57996	23.52008	482.49951	660.36597	23.57801	584.57245	-27.17855	714.48639	-985.20947	
